<svg width="12" height="12" viewBox="0 0 12 12" fill="none" xmlns="http://www.w3.org/2000/svg">
<g opacity="0.4">
<path d="M0.459029 2.67542C-0.15301 2.06338 -0.15301 1.07107 0.459029 0.459029C1.07107 -0.153009 2.06338 -0.15301 2.67542 0.459029L11.541 9.32458C12.153 9.93662 12.153 10.9289 11.541 11.541C10.9289 12.153 9.93662 12.153 9.32458 11.541L0.459029 2.67542Z" fill="#828282"/>
<path d="M2.67542 11.541C2.06338 12.153 1.07107 12.153 0.459029 11.541C-0.15301 10.9289 -0.153009 9.93662 0.459029 9.32458L9.32458 0.459029C9.93662 -0.153009 10.9289 -0.153009 11.541 0.459029C12.153 1.07107 12.153 2.06338 11.541 2.67542L2.67542 11.541Z" fill="#828282"/>
</g>
</svg>
